FFmpeg Befehl: C:\Users\ThiloBrosinsky\AppData\Local\Microsoft\WinGet\Packages\Gyan.FFmpeg_Microsoft.Winget.Source_8wekyb3d8bbwe\ffmpeg-8.0.1-full_build\bin\ffmpeg.exe -y -f gdigrab -framerate 30 -i title="Peakboard Runtime" -f lavfi -i anullsrc=channel_layout=stereo:sample_rate=44100 -t 60 -vf "scale=trunc(iw/2)*2:trunc(ih/2)*2" -r 30 -vsync cfr -c:v libx264 -preset fast -crf 23 -pix_fmt yuv420p -c:a aac -b:a 128k -shortest -movflags +faststart "C:\Source\peakboardguru.github.io\assets\2026-03-09-12-35-22\bg_clip.mp4"
Window Title: Peakboard Runtime
Start: 2026-03-09T12:35:48.3755320+01:00

Exit Code: 0
Exited normally: True

STDERR:
ffmpeg version 8.0.1-full_build-www.gyan.dev Copyright (c) 2000-2025 the FFmpeg developers
  built with gcc 15.2.0 (Rev8, Built by MSYS2 project)
  configuration: --enable-gpl --enable-version3 --enable-static --disable-w32threads --disable-autodetect --enable-fontconfig --enable-iconv --enable-gnutls --enable-lcms2 --enable-libxml2 --enable-gmp --enable-bzlib --enable-lzma --enable-libsnappy --enable-zlib --enable-librist --enable-libsrt --enable-libssh --enable-libzmq --enable-avisynth --enable-libbluray --enable-libcaca --enable-libdvdnav --enable-libdvdread --enable-sdl2 --enable-libaribb24 --enable-libaribcaption --enable-libdav1d --enable-libdavs2 --enable-libopenjpeg --enable-libquirc --enable-libuavs3d --enable-libxevd --enable-libzvbi --enable-liboapv --enable-libqrencode --enable-librav1e --enable-libsvtav1 --enable-libvvenc --enable-libwebp --enable-libx264 --enable-libx265 --enable-libxavs2 --enable-libxeve --enable-libxvid --enable-libaom --enable-libjxl --enable-libvpx --enable-mediafoundation --enable-libass --enable-frei0r --enable-libfreetype --enable-libfribidi --enable-libharfbuzz --enable-liblensfun --enable-libvidstab --enable-libvmaf --enable-libzimg --enable-amf --enable-cuda-llvm --enable-cuvid --enable-dxva2 --enable-d3d11va --enable-d3d12va --enable-ffnvcodec --enable-libvpl --enable-nvdec --enable-nvenc --enable-vaapi --enable-libshaderc --enable-vulkan --enable-libplacebo --enable-opencl --enable-libcdio --enable-openal --enable-libgme --enable-libmodplug --enable-libopenmpt --enable-libopencore-amrwb --enable-libmp3lame --enable-libshine --enable-libtheora --enable-libtwolame --enable-libvo-amrwbenc --enable-libcodec2 --enable-libilbc --enable-libgsm --enable-liblc3 --enable-libopencore-amrnb --enable-libopus --enable-libspeex --enable-libvorbis --enable-ladspa --enable-libbs2b --enable-libflite --enable-libmysofa --enable-librubberband --enable-libsoxr --enable-chromaprint --enable-whisper
  libavutil      60.  8.100 / 60.  8.100
  libavcodec     62. 11.100 / 62. 11.100
  libavformat    62.  3.100 / 62.  3.100
  libavdevice    62.  1.100 / 62.  1.100
  libavfilter    11.  4.100 / 11.  4.100
  libswscale      9.  1.100 /  9.  1.100
  libswresample   6.  1.100 /  6.  1.100
-vsync is deprecated. Use -fps_mode
[gdigrab @ 000001cb02616800] Found window Peakboard Runtime, capturing 1920x1080x32 at (0,0)
[gdigrab @ 000001cb02616800] Stream #0: not enough frames to estimate rate; consider increasing probesize
Input #0, gdigrab, from 'title=Peakboard Runtime':
  Duration: N/A, start: 1773056148.481508, bitrate: 1990668 kb/s
  Stream #0:0: Video: bmp, bgra, 1920x1080, 1990668 kb/s, 30 fps, 1000k tbr, 1000k tbn, start 1773056148.481508
Input #1, lavfi, from 'anullsrc=channel_layout=stereo:sample_rate=44100':
  Duration: N/A, start: 0.000000, bitrate: 705 kb/s
  Stream #1:0: Audio: pcm_u8, 44100 Hz, stereo, u8, 705 kb/s
Stream mapping:
  Stream #0:0 -> #0:0 (bmp (native) -> h264 (libx264))
  Stream #1:0 -> #0:1 (pcm_u8 (native) -> aac (native))
Press [q] to stop, [?] for help
[libx264 @ 000001cb026291c0] using cpu capabilities: MMX2 SSE2Fast SSSE3 SSE4.2 AVX FMA3 BMI2 AVX2 AVX512
[libx264 @ 000001cb026291c0] profile High, level 4.0, 4:2:0, 8-bit
[libx264 @ 000001cb026291c0] 264 - core 165 r3223 0480cb0 - H.264/MPEG-4 AVC codec - Copyleft 2003-2025 - http://www.videolan.org/x264.html - options: cabac=1 ref=2 deblock=1:0:0 analyse=0x3:0x113 me=hex subme=6 psy=1 psy_rd=1.00:0.00 mixed_ref=1 me_range=16 chroma_me=1 trellis=1 8x8dct=1 cqm=0 deadzone=21,11 fast_pskip=1 chroma_qp_offset=-2 threads=24 lookahead_threads=4 sliced_threads=0 nr=0 decimate=1 interlaced=0 bluray_compat=0 constrained_intra=0 bframes=3 b_pyramid=2 b_adapt=1 b_bias=0 direct=1 weightb=1 open_gop=0 weightp=1 keyint=250 keyint_min=25 scenecut=40 intra_refresh=0 rc_lookahead=30 rc=crf mbtree=1 crf=23.0 qcomp=0.60 qpmin=0 qpmax=69 qpstep=4 ip_ratio=1.40 aq=1:1.00
Output #0, mp4, to 'C:\Source\peakboardguru.github.io\assets\2026-03-09-12-35-22\bg_clip.mp4':
  Metadata:
    encoder         : Lavf62.3.100
  Stream #0:0: Video: h264 (avc1 / 0x31637661), yuv420p(tv, progressive), 1920x1080, q=2-31, 30 fps, 15360 tbn
    Metadata:
      encoder         : Lavc62.11.100 libx264
    Side data:
      cpb: bitrate max/min/avg: 0/0/0 buffer size: 0 vbv_delay: N/A
  Stream #0:1: Audio: aac (LC) (mp4a / 0x6134706D), 44100 Hz, stereo, fltp, 128 kb/s
    Metadata:
      encoder         : Lavc62.11.100 aac
frame=    0 fps=0.0 q=0.0 size=       0KiB time=N/A bitrate=N/A speed=N/A elapsed=0:00:00.50    frame=    0 fps=0.0 q=0.0 size=       0KiB time=N/A bitrate=N/A speed=N/A elapsed=0:00:01.02    frame=    0 fps=0.0 q=0.0 size=       0KiB time=N/A bitrate=N/A speed=N/A elapsed=0:00:01.53    frame=    4 fps=1.9 q=29.0 size=       0KiB time=00:00:00.06 bitrate=   5.8kbits/s speed=0.0325x elapsed=0:00:02.05    frame=   20 fps=7.8 q=29.0 size=       0KiB time=00:00:00.60 bitrate=   0.6kbits/s speed=0.233x elapsed=0:00:02.57    frame=   35 fps= 11 q=29.0 size=       0KiB time=00:00:01.10 bitrate=   0.3kbits/s speed=0.357x elapsed=0:00:03.08    frame=   51 fps= 14 q=29.0 size=       0KiB time=00:00:01.63 bitrate=   0.2kbits/s speed=0.454x elapsed=0:00:03.59    frame=   66 fps= 16 q=29.0 size=       0KiB time=00:00:02.13 bitrate=   0.2kbits/s speed=0.517x elapsed=0:00:04.12    frame=   82 fps= 18 q=29.0 size=       0KiB time=00:00:02.66 bitrate=   0.1kbits/s speed=0.575x elapsed=0:00:04.63    frame=   97 fps= 19 q=29.0 size=       0KiB time=00:00:03.16 bitrate=   0.1kbits/s speed=0.614x elapsed=0:00:05.15    frame=  113 fps= 20 q=29.0 size=       0KiB time=00:00:03.70 bitrate=   0.1kbits/s speed=0.653x elapsed=0:00:05.66    frame=  128 fps= 21 q=29.0 size=       0KiB time=00:00:04.20 bitrate=   0.1kbits/s speed=0.679x elapsed=0:00:06.18    frame=  144 fps= 22 q=29.0 size=       0KiB time=00:00:04.73 bitrate=   0.1kbits/s speed=0.707x elapsed=0:00:06.69    frame=  159 fps= 22 q=29.0 size=       0KiB time=00:00:05.23 bitrate=   0.1kbits/s speed=0.726x elapsed=0:00:07.21    frame=  174 fps= 23 q=29.0 size=       0KiB time=00:00:05.73 bitrate=   0.1kbits/s speed=0.742x elapsed=0:00:07.72    frame=  190 fps= 23 q=29.0 size=       0KiB time=00:00:06.26 bitrate=   0.1kbits/s speed=0.761x elapsed=0:00:08.23    frame=  206 fps= 24 q=29.0 size=       0KiB time=00:00:06.80 bitrate=   0.1kbits/s speed=0.776x elapsed=0:00:08.76    frame=  221 fps= 24 q=29.0 size=       0KiB time=00:00:07.30 bitrate=   0.1kbits/s speed=0.787x elapsed=0:00:09.27    frame=  236 fps= 24 q=29.0 size=       0KiB time=00:00:07.80 bitrate=   0.0kbits/s speed=0.797x elapsed=0:00:09.79    frame=  252 fps= 24 q=29.0 size=       0KiB time=00:00:08.33 bitrate=   0.0kbits/s speed=0.809x elapsed=0:00:10.30    frame=  256 fps= 24 q=29.0 size=       0KiB time=00:00:08.46 bitrate=   0.0kbits/s speed=0.782x elapsed=0:00:10.82    frame=  256 fps= 23 q=29.0 size=       0KiB time=00:00:08.46 bitrate=   0.0kbits/s speed=0.747x elapsed=0:00:11.33    frame=  256 fps= 22 q=29.0 size=       0KiB time=00:00:08.46 bitrate=   0.0kbits/s speed=0.714x elapsed=0:00:11.85    frame=  256 fps= 21 q=29.0 size=       0KiB time=00:00:08.46 bitrate=   0.0kbits/s speed=0.685x elapsed=0:00:12.36    frame=  256 fps= 20 q=29.0 size=       0KiB time=00:00:08.46 bitrate=   0.0kbits/s speed=0.657x elapsed=0:00:12.88    frame=  256 fps= 19 q=29.0 size=       0KiB time=00:00:08.46 bitrate=   0.0kbits/s speed=0.632x elapsed=0:00:13.40    frame=  256 fps= 18 q=29.0 size=       0KiB time=00:00:08.46 bitrate=   0.0kbits/s speed=0.608x elapsed=0:00:13.91    frame=  256 fps= 18 q=29.0 size=       0KiB time=00:00:08.46 bitrate=   0.0kbits/s speed=0.587x elapsed=0:00:14.42    frame=  256 fps= 17 q=29.0 size=       0KiB time=00:00:08.46 bitrate=   0.0kbits/s speed=0.567x elapsed=0:00:14.94    frame=  256 fps= 17 q=29.0 size=       0KiB time=00:00:08.46 bitrate=   0.0kbits/s speed=0.547x elapsed=0:00:15.47    frame=  256 fps= 16 q=29.0 size=       0KiB time=00:00:08.46 bitrate=   0.0kbits/s speed=0.53x elapsed=0:00:15.98    frame=  256 fps= 16 q=29.0 size=       0KiB time=00:00:08.46 bitrate=   0.0kbits/s speed=0.513x elapsed=0:00:16.50    frame=  256 fps= 15 q=29.0 size=       0KiB time=00:00:08.46 bitrate=   0.0kbits/s speed=0.498x elapsed=0:00:17.01    frame=  256 fps= 15 q=29.0 size=       0KiB time=00:00:08.46 bitrate=   0.0kbits/s speed=0.483x elapsed=0:00:17.52    frame=  256 fps= 14 q=29.0 size=       0KiB time=00:00:08.46 bitrate=   0.0kbits/s speed=0.469x elapsed=0:00:18.04    frame=  256 fps= 14 q=29.0 size=       0KiB time=00:00:08.46 bitrate=   0.0kbits/s speed=0.456x elapsed=0:00:18.55    frame=  256 fps= 13 q=29.0 size=       0KiB time=00:00:08.46 bitrate=   0.0kbits/s speed=0.444x elapsed=0:00:19.06    frame=  256 fps= 13 q=29.0 size=       0KiB time=00:00:08.46 bitrate=   0.0kbits/s speed=0.432x elapsed=0:00:19.58    frame=  256 fps= 13 q=29.0 size=       0KiB time=00:00:08.46 bitrate=   0.0kbits/s speed=0.421x elapsed=0:00:20.10    frame=  262 fps= 13 q=29.0 size=       0KiB time=00:00:08.66 bitrate=   0.0kbits/s speed=0.42x elapsed=0:00:20.61    frame=  276 fps= 13 q=29.0 size=       0KiB time=00:00:09.13 bitrate=   0.0kbits/s speed=0.432x elapsed=0:00:21.12    frame=  292 fps= 13 q=29.0 size=       0KiB time=00:00:09.66 bitrate=   0.0kbits/s speed=0.447x elapsed=0:00:21.64    frame=  308 fps= 14 q=29.0 size=       0KiB time=00:00:10.20 bitrate=   0.0kbits/s speed=0.46x elapsed=0:00:22.16    frame=  324 fps= 14 q=29.0 size=       0KiB time=00:00:10.73 bitrate=   0.0kbits/s speed=0.473x elapsed=0:00:22.68    frame=  340 fps= 15 q=29.0 size=       0KiB time=00:00:11.26 bitrate=   0.0kbits/s speed=0.486x elapsed=0:00:23.20    frame=  354 fps= 15 q=29.0 size=       0KiB time=00:00:11.73 bitrate=   0.0kbits/s speed=0.495x elapsed=0:00:23.71    frame=  370 fps= 15 q=29.0 size=       0KiB time=00:00:12.26 bitrate=   0.0kbits/s speed=0.506x elapsed=0:00:24.22    frame=  386 fps= 16 q=29.0 size=       0KiB time=00:00:12.80 bitrate=   0.0kbits/s speed=0.517x elapsed=0:00:24.74    frame=  400 fps= 16 q=29.0 size=       0KiB time=00:00:13.26 bitrate=   0.0kbits/s speed=0.525x elapsed=0:00:25.25    frame=  416 fps= 16 q=29.0 size=       0KiB time=00:00:13.80 bitrate=   0.0kbits/s speed=0.535x elapsed=0:00:25.78    frame=  432 fps= 16 q=29.0 size=       0KiB time=00:00:14.33 bitrate=   0.0kbits/s speed=0.545x elapsed=0:00:26.29    frame=  448 fps= 17 q=29.0 size=       0KiB time=00:00:14.86 bitrate=   0.0kbits/s speed=0.554x elapsed=0:00:26.81    frame=  462 fps= 17 q=29.0 size=       0KiB time=00:00:15.33 bitrate=   0.0kbits/s speed=0.561x elapsed=0:00:27.32    frame=  478 fps= 17 q=26.0 size=       0KiB time=00:00:15.86 bitrate=   0.0kbits/s speed=0.57x elapsed=0:00:27.84    frame=  494 fps= 17 q=29.0 size=       0KiB time=00:00:16.40 bitrate=   0.0kbits/s speed=0.578x elapsed=0:00:28.35    frame=  510 fps= 18 q=29.0 size=     256KiB time=00:00:16.93 bitrate= 123.9kbits/s speed=0.587x elapsed=0:00:28.86    frame=  524 fps= 18 q=29.0 size=     256KiB time=00:00:17.40 bitrate= 120.5kbits/s speed=0.592x elapsed=0:00:29.39    frame=  540 fps= 18 q=29.0 size=     256KiB time=00:00:17.93 bitrate= 117.0kbits/s speed= 0.6x elapsed=0:00:29.90    frame=  556 fps= 18 q=29.0 size=     256KiB time=00:00:18.46 bitrate= 113.6kbits/s speed=0.607x elapsed=0:00:30.41    frame=  572 fps= 18 q=29.0 size=     256KiB time=00:00:19.00 bitrate= 110.4kbits/s speed=0.614x elapsed=0:00:30.93    frame=  586 fps= 19 q=29.0 size=     256KiB time=00:00:19.46 bitrate= 107.8kbits/s speed=0.619x elapsed=0:00:31.44    frame=  602 fps= 19 q=29.0 size=     256KiB time=00:00:20.00 bitrate= 104.9kbits/s speed=0.626x elapsed=0:00:31.96    frame=  618 fps= 19 q=29.0 size=     256KiB time=00:00:20.53 bitrate= 102.2kbits/s speed=0.632x elapsed=0:00:32.47    frame=  632 fps= 19 q=29.0 size=     256KiB time=00:00:21.00 bitrate=  99.9kbits/s speed=0.637x elapsed=0:00:32.98    frame=  648 fps= 19 q=29.0 size=     256KiB time=00:00:21.53 bitrate=  97.4kbits/s speed=0.642x elapsed=0:00:33.51    frame=  664 fps= 20 q=29.0 size=     256KiB time=00:00:22.06 bitrate=  95.1kbits/s speed=0.648x elapsed=0:00:34.03    frame=  680 fps= 20 q=29.0 size=     256KiB time=00:00:22.60 bitrate=  92.8kbits/s speed=0.654x elapsed=0:00:34.54    frame=  694 fps= 20 q=29.0 size=     256KiB time=00:00:23.06 bitrate=  90.9kbits/s speed=0.658x elapsed=0:00:35.06    frame=  710 fps= 20 q=29.0 size=     256KiB time=00:00:23.60 bitrate=  88.9kbits/s speed=0.663x elapsed=0:00:35.57    frame=  726 fps= 20 q=29.0 size=     256KiB time=00:00:24.13 bitrate=  86.9kbits/s speed=0.669x elapsed=0:00:36.08    frame=  742 fps= 20 q=29.0 size=     256KiB time=00:00:24.66 bitrate=  85.0kbits/s speed=0.674x elapsed=0:00:36.60    frame=  756 fps= 20 q=29.0 size=     256KiB time=00:00:25.13 bitrate=  83.5kbits/s speed=0.677x elapsed=0:00:37.11    frame=  772 fps= 21 q=29.0 size=     256KiB time=00:00:25.66 bitrate=  81.7kbits/s speed=0.682x elapsed=0:00:37.63    frame=  788 fps= 21 q=29.0 size=     256KiB time=00:00:26.20 bitrate=  80.1kbits/s speed=0.687x elapsed=0:00:38.15    frame=  804 fps= 21 q=29.0 size=     256KiB time=00:00:26.73 bitrate=  78.5kbits/s speed=0.691x elapsed=0:00:38.66    frame=  818 fps= 21 q=29.0 size=     256KiB time=00:00:27.20 bitrate=  77.1kbits/s speed=0.694x elapsed=0:00:39.18    frame=  834 fps= 21 q=29.0 size=     256KiB time=00:00:27.73 bitrate=  75.6kbits/s speed=0.699x elapsed=0:00:39.69    frame=  850 fps= 21 q=29.0 size=     256KiB time=00:00:28.26 bitrate=  74.2kbits/s speed=0.703x elapsed=0:00:40.21    frame=  864 fps= 21 q=29.0 size=     256KiB time=00:00:28.73 bitrate=  73.0kbits/s speed=0.706x elapsed=0:00:40.72    frame=  880 fps= 21 q=29.0 size=     256KiB time=00:00:29.26 bitrate=  71.7kbits/s speed=0.71x elapsed=0:00:41.23    frame=  896 fps= 21 q=29.0 size=     256KiB time=00:00:29.80 bitrate=  70.4kbits/s speed=0.713x elapsed=0:00:41.76    frame=  912 fps= 22 q=29.0 size=     256KiB time=00:00:30.33 bitrate=  69.1kbits/s speed=0.718x elapsed=0:00:42.26    frame=  928 fps= 22 q=29.0 size=     256KiB time=00:00:30.86 bitrate=  68.0kbits/s speed=0.721x elapsed=0:00:42.79    frame=  942 fps= 22 q=29.0 size=     256KiB time=00:00:31.33 bitrate=  66.9kbits/s speed=0.723x elapsed=0:00:43.31    frame=  958 fps= 22 q=29.0 size=     256KiB time=00:00:31.86 bitrate=  65.8kbits/s speed=0.727x elapsed=0:00:43.82    frame=  974 fps= 22 q=29.0 size=     256KiB time=00:00:32.40 bitrate=  64.7kbits/s speed=0.731x elapsed=0:00:44.34    frame=  988 fps= 22 q=29.0 size=     256KiB time=00:00:32.86 bitrate=  63.8kbits/s speed=0.733x elapsed=0:00:44.85    frame= 1004 fps= 22 q=29.0 size=     256KiB time=00:00:33.40 bitrate=  62.8kbits/s speed=0.736x elapsed=0:00:45.37    frame= 1020 fps= 22 q=29.0 size=     256KiB time=00:00:33.93 bitrate=  61.8kbits/s speed=0.74x elapsed=0:00:45.88    frame= 1036 fps= 22 q=29.0 size=     256KiB time=00:00:34.46 bitrate=  60.9kbits/s speed=0.743x elapsed=0:00:46.39    frame= 1050 fps= 22 q=29.0 size=     256KiB time=00:00:34.93 bitrate=  60.0kbits/s speed=0.744x elapsed=0:00:46.92    frame= 1066 fps= 22 q=29.0 size=     256KiB time=00:00:35.46 bitrate=  59.1kbits/s speed=0.748x elapsed=0:00:47.43    frame= 1082 fps= 23 q=29.0 size=     256KiB time=00:00:36.00 bitrate=  58.3kbits/s speed=0.751x elapsed=0:00:47.94    frame= 1098 fps= 23 q=29.0 size=     512KiB time=00:00:36.53 bitrate= 114.8kbits/s speed=0.754x elapsed=0:00:48.46    frame= 1112 fps= 23 q=29.0 size=     512KiB time=00:00:37.00 bitrate= 113.4kbits/s speed=0.755x elapsed=0:00:48.97    frame= 1128 fps= 23 q=29.0 size=     512KiB time=00:00:37.53 bitrate= 111.8kbits/s speed=0.758x elapsed=0:00:49.49    frame= 1144 fps= 23 q=29.0 size=     512KiB time=00:00:38.06 bitrate= 110.2kbits/s speed=0.761x elapsed=0:00:50.00    frame= 1158 fps= 23 q=29.0 size=     512KiB time=00:00:38.53 bitrate= 108.9kbits/s speed=0.763x elapsed=0:00:50.52    frame= 1174 fps= 23 q=29.0 size=     512KiB time=00:00:39.06 bitrate= 107.4kbits/s speed=0.765x elapsed=0:00:51.03    frame= 1190 fps= 23 q=29.0 size=     512KiB time=00:00:39.60 bitrate= 105.9kbits/s speed=0.768x elapsed=0:00:51.55    frame= 1206 fps= 23 q=29.0 size=     512KiB time=00:00:40.13 bitrate= 104.5kbits/s speed=0.771x elapsed=0:00:52.06    frame= 1220 fps= 23 q=29.0 size=     512KiB time=00:00:40.60 bitrate= 103.3kbits/s speed=0.772x elapsed=0:00:52.58    frame= 1236 fps= 23 q=29.0 size=     512KiB time=00:00:41.13 bitrate= 102.0kbits/s speed=0.774x elapsed=0:00:53.11    frame= 1252 fps= 23 q=29.0 size=     512KiB time=00:00:41.66 bitrate= 100.7kbits/s speed=0.777x elapsed=0:00:53.62    frame= 1268 fps= 23 q=29.0 size=     512KiB time=00:00:42.20 bitrate=  99.4kbits/s speed=0.779x elapsed=0:00:54.14    frame= 1282 fps= 23 q=29.0 size=     512KiB time=00:00:42.66 bitrate=  98.3kbits/s speed=0.781x elapsed=0:00:54.65    frame= 1298 fps= 24 q=29.0 size=     512KiB time=00:00:43.20 bitrate=  97.1kbits/s speed=0.783x elapsed=0:00:55.17    frame= 1314 fps= 24 q=29.0 size=     512KiB time=00:00:43.73 bitrate=  95.9kbits/s speed=0.785x elapsed=0:00:55.68    frame= 1330 fps= 24 q=29.0 size=     512KiB time=00:00:44.26 bitrate=  94.8kbits/s speed=0.788x elapsed=0:00:56.19    frame= 1344 fps= 24 q=29.0 size=     512KiB time=00:00:44.73 bitrate=  93.8kbits/s speed=0.789x elapsed=0:00:56.71    frame= 1360 fps= 24 q=29.0 size=     512KiB time=00:00:45.26 bitrate=  92.7kbits/s speed=0.791x elapsed=0:00:57.22    frame= 1376 fps= 24 q=29.0 size=     512KiB time=00:00:45.80 bitrate=  91.6kbits/s speed=0.793x elapsed=0:00:57.74    frame= 1390 fps= 24 q=29.0 size=     512KiB time=00:00:46.26 bitrate=  90.7kbits/s speed=0.794x elapsed=0:00:58.25    frame= 1406 fps= 24 q=29.0 size=     512KiB time=00:00:46.80 bitrate=  89.6kbits/s speed=0.796x elapsed=0:00:58.77    frame= 1422 fps= 24 q=29.0 size=     512KiB time=00:00:47.33 bitrate=  88.6kbits/s speed=0.798x elapsed=0:00:59.28    frame= 1438 fps= 24 q=29.0 size=     512KiB time=00:00:47.86 bitrate=  87.6kbits/s speed= 0.8x elapsed=0:00:59.80    frame= 1591 fps= 26 q=29.0 size=     768KiB time=00:00:55.24 bitrate= 113.9kbits/s speed=0.916x elapsed=0:01:00.32    [mp4 @ 000001cb02628540] Starting second pass: moving the moov atom to the beginning of the file
[out#0/mp4 @ 000001cb02621d40] video:881KiB audio:15KiB subtitle:0KiB other streams:0KiB global headers:0KiB muxing overhead: 7.243040%
frame= 1800 fps= 30 q=-1.0 Lsize=     962KiB time=00:00:59.93 bitrate= 131.4kbits/s speed=0.987x elapsed=0:01:00.72    
[libx264 @ 000001cb026291c0] frame I:8     Avg QP:13.42  size: 72317
[libx264 @ 000001cb026291c0] frame P:466   Avg QP:18.27  size:   439
[libx264 @ 000001cb026291c0] frame B:1326  Avg QP:22.02  size:    89
[libx264 @ 000001cb026291c0] consecutive B-frames:  0.9%  2.0%  1.5% 95.6%
[libx264 @ 000001cb026291c0] mb I  I16..4: 48.5% 37.2% 14.3%
[libx264 @ 000001cb026291c0] mb P  I16..4:  0.1%  0.1%  0.0%  P16..4:  0.2%  0.1%  0.0%  0.0%  0.0%    skip:99.4%
[libx264 @ 000001cb026291c0] mb B  I16..4:  0.0%  0.0%  0.0%  B16..8:  0.1%  0.0%  0.0%  direct: 0.0%  skip:99.9%  L0:49.1% L1:49.8% BI: 1.0%
[libx264 @ 000001cb026291c0] 8x8 transform intra:38.2% inter:17.1%
[libx264 @ 000001cb026291c0] coded y,uvDC,uvAC intra: 9.3% 16.2% 14.7% inter: 0.0% 0.0% 0.0%
[libx264 @ 000001cb026291c0] i16 v,h,dc,p: 67% 32%  2%  0%
[libx264 @ 000001cb026291c0] i8 v,h,dc,ddl,ddr,vr,hd,vl,hu: 66% 21% 13%  0%  0%  0%  0%  0%  0%
[libx264 @ 000001cb026291c0] i4 v,h,dc,ddl,ddr,vr,hd,vl,hu: 41% 22% 17%  2%  3%  4%  4%  3%  3%
[libx264 @ 000001cb026291c0] i8c dc,h,v,p: 67% 24%  8%  1%
[libx264 @ 000001cb026291c0] Weighted P-Frames: Y:0.2% UV:0.2%
[libx264 @ 000001cb026291c0] ref P L0: 86.4% 13.6%
[libx264 @ 000001cb026291c0] ref B L0: 73.7% 26.3%
[libx264 @ 000001cb026291c0] ref B L1: 94.3%  5.7%
[libx264 @ 000001cb026291c0] kb/s:120.25
[aac @ 000001cb0262d880] Qavg: 65536.000

